{"title":"Harry Potter and the Deathly Hallows (Part-1) OFFICIAL TRAILER H","uid":5849396,"size":10415456,"categoryP":"video","categoryS":"movie_clips","magnet":"?xt=urn:btih:30cb9f4a6b1a057f6a836e70739ccff39ca22ffe&amp;dn=Harry+Potter+and+the+Deathly+Hallows+%28Part-1%29+OFFICIAL+TRAILER+H&amp;tr=udp%3A%2F%2Ftracker.openbittorrent.com%3A80&amp;tr=udp%3A%2F%2Fopen.demonii.com%3A1337&amp;tr=udp%3A%2F%2Ftracker.coppersurfer.tk%3A6969&amp;tr=udp%3A%2F%2Fexodus.desync.com%3A6969","seeders":0,"leechers":0,"uploader":".GHOST.","files":2,"time":1285323807,"description":"Harry Potter and the Deathly Hallows (Part-1) OFFICIAL TRAILER H264 - GHOST\n\nFormat                           : Flash Video\nFile size                        : 9.91 MiB\nDuration                         : 2mn 27s\nOverall bit rate                 : 563 Kbps\n\nVideo\nFormat                           : AVC\nFormat/Info                      : Advanced Video Codec\nFormat profile                   : &lt;a class=&quot;__cf_email__&quot; href=&quot;/cdn-cgi/l/email-protection&quot; data-cfemail=&quot;a6ebc7cfc8e6ea948897&quot;&gt;[email&amp;#160;protected]&lt;/a&gt;&lt;script data-cfhash='f9e31' type=&quot;text/javascript&quot;&gt;\n/* &lt;![CDATA[ */!function(){try{var t=&quot;currentScript&quot;in document?document.currentScript:function(){for(var t=document.getElementsByTagName(&quot;script&quot;),e=t.length;e--;)if(t[e].getAttribute(&quot;data-cfhash&quot;))return t[e]}();if(t&amp;&amp;t.previousSibling){var e,r,n,i,c=t.previousSibling,a=c.getAttribute(&quot;data-cfemail&quot;);if(a){for(e=&quot;&quot;,r=parseInt(a.substr(0,2),16),n=2;a.length-n;n+=2)i=parseInt(a.substr(n,2),16)^r,e+=String.fromCharCode(i);e=document.createTextNode(e),c.parentNode.replaceChild(e,c)}t.parentNode.removeChild(t);}}catch(u){}}()/* ]]&gt; */&lt;/script&gt;\nFormat settings, CABAC           : Yes\nFormat settings, ReFrames        : 3 frames\n\nDuration                         : 2mn 27s\nBit rate                         : 455 Kbps\nWidth                            : 640 pixels\nHeight                           : 266 pixels\nDisplay aspect ratio             : 2.40:1\nFrame rate mode                  : Constant\nFrame rate                       : 24.000 fps\nColor space                      : YUV\nChroma subsampling               : 4:2:0\nBit depth                        : 8 bits\nScan type                        : Progressive\nBits/(Pixel*Frame)               : 0.111\nStream size                      : 7.98 MiB (81%)\n\nAudio\nFormat                           : AAC\nFormat/Info                      : Advanced Audio Codec\nFormat version                   : Version 4\nFormat profile                   : LC\nFormat settings, SBR             : No\nDuration                         : 2mn 27s\nBit rate                         : 102 Kbps\nChannel(s)                       : 2 channels\nChannel positions                : Front: L R\nSampling rate                    : 44.1 KHz\nBit depth                        : 16 bits\nStream size                      : 1.78 MiB (18%)\n\n","torrent":{"xt":"urn:btih:30cb9f4a6b1a057f6a836e70739ccff39ca22ffe","amp;dn":"Harry+Potter+and+the+Deathly+Hallows+%28Part-1%29+OFFICIAL+TRAILER+H","amp;tr":["udp%3A%2F%2Ftracker.openbittorrent.com%3A80","udp%3A%2F%2Fopen.demonii.com%3A1337","udp%3A%2F%2Ftracker.coppersurfer.tk%3A6969","udp%3A%2F%2Fexodus.desync.com%3A6969"],"infoHash":"30cb9f4a6b1a057f6a836e70739ccff39ca22ffe","infoHashBuffer":{"type":"Buffer","data":[48,203,159,74,107,26,5,127,106,131,110,112,115,156,207,243,156,162,47,254]},"announce":[],"urlList":[]}}